<svg width="38" height="38" viewBox="0 0 38 38" fill="none" xmlns="http://www.w3.org/2000/svg">
<g clip-path="url(#clip0_1_861)">
<path fill-rule="evenodd" clip-rule="evenodd" d="M10.6226 12.7818C10.3841 12.7818 10.1908 12.9751 10.1908 13.2136V24.7863C10.1908 25.0248 10.3841 25.2181 10.6226 25.2181H11.8317C12.0702 25.2181 12.2635 25.0248 12.2635 24.7863V13.2136C12.2635 12.9751 12.0702 12.7818 11.8317 12.7818H10.6226ZM9.93168 11.2272C9.21623 11.2272 8.63623 11.8072 8.63623 12.5227V25.4772C8.63623 26.1927 9.21623 26.7727 9.93168 26.7727H12.5226C13.2381 26.7727 13.818 26.1927 13.818 25.4772V12.5227C13.818 11.8072 13.2381 11.2272 12.5226 11.2272H9.93168Z" fill="black"/>
<path fill-rule="evenodd" clip-rule="evenodd" d="M17.0996 12.7818C16.8612 12.7818 16.6678 12.9751 16.6678 13.2136V24.7863C16.6678 25.0248 16.8612 25.2181 17.0996 25.2181H18.3087C18.5472 25.2181 18.7406 25.0248 18.7406 24.7863V13.2136C18.7406 12.9751 18.5472 12.7818 18.3087 12.7818H17.0996ZM16.4087 11.2272C15.6933 11.2272 15.1133 11.8072 15.1133 12.5227V25.4772C15.1133 26.1927 15.6933 26.7727 16.4087 26.7727H18.9996C19.7151 26.7727 20.2951 26.1927 20.2951 25.4772V12.5227C20.2951 11.8072 19.7151 11.2272 18.9996 11.2272H16.4087Z" fill="black"/>
<path fill-rule="evenodd" clip-rule="evenodd" d="M23.2761 15.0806C23.0478 15.1498 22.9188 15.3908 22.988 15.6191L25.7207 24.6413C25.7898 24.8695 26.0309 24.9985 26.2591 24.9294L27.0857 24.679C27.3139 24.6099 27.4429 24.3688 27.3738 24.1406L24.6411 15.1184C24.5719 14.8901 24.3309 14.7612 24.1026 14.8303L23.2761 15.0806ZM21.9488 13.6779C21.2641 13.8853 20.8771 14.6085 21.0845 15.2932L24.3179 25.9685C24.5253 26.6533 25.2485 27.0402 25.9333 26.8328L28.4129 26.0818C29.0977 25.8744 29.4846 25.1512 29.2772 24.4664L26.0438 13.7911C25.8364 13.1064 25.1132 12.7194 24.4285 12.9268L21.9488 13.6779Z" fill="black"/>
</g>
<defs>
<clipPath id="clip0_1_861">
<rect width="20.7273" height="20.7273" fill="white" transform="translate(8.63623 8.63635)"/>
</clipPath>
</defs>
</svg>
